<svg xmlns="http://www.w3.org/2000/svg" version="1.1" xmlns:xlink="http://www.w3.org/1999/xlink" xmlns:svgjs="http://svgjs.dev/svgjs" width="2000" height="1278" viewBox="0 0 2000 1278"><g transform="matrix(1,0,0,1,-1.7047123695822393,-3.772157686944979)"><svg viewBox="0 0 388 248" data-background-color="#ffffff" preserveAspectRatio="xMidYMid meet" height="1278" width="2000" xmlns="http://www.w3.org/2000/svg" xmlns:xlink="http://www.w3.org/1999/xlink"><g id="tight-bounds" transform="matrix(1,0,0,1,0.3307141996989458,0.7319993007530172)"><svg viewBox="0 0 387.3385716006021 247.2" height="247.2" width="387.3385716006021"><g><svg viewBox="0 0 395.52 252.42139866415516" height="247.2" width="387.3385716006021"><g transform="matrix(1,0,0,1,0,156.0065510187258)"><svg viewBox="0 0 395.52 96.41484764542938" height="96.41484764542938" width="395.52"><g id="textblocktransform"><svg viewBox="0 0 395.52 96.41484764542938" height="96.41484764542938" width="395.52" id="textblock"><g><svg viewBox="0 0 395.52 96.41484764542938" height="96.41484764542938" width="395.52"><g transform="matrix(1,0,0,1,0,0)"><svg width="395.52" viewBox="0.9 -28.5 162.44 39.6" height="96.41484764542938" data-palette-color="#ef5b2a"><path d="M49.2-8.2L51.4-8.2 51.4 0 35.6 0 35.6-8.2 37.7-8.2 37.7-16.4Q37.7-18.05 37-18.82 36.3-19.6 34.9-19.6L34.9-19.6Q31.9-19.6 31.9-16.4L31.9-16.4 31.9-8.2 34-8.2 34 0 18.3 0 18.3-8.2 20.4-8.2 20.4-16.4Q20.4-18.05 19.7-18.82 19-19.6 17.6-19.6L17.6-19.6Q14.6-19.6 14.6-16.4L14.6-16.4 14.6-8.2 16.7-8.2 16.7 0 0.9 0 0.9-8.2 3.1-8.2 3.1-19.6 0.9-19.6 0.9-27.8 14.6-27.8 14.6-23.9Q18.2-28.5 23.6-28.5L23.6-28.5Q26.65-28.5 28.58-27.08 30.5-25.65 31.3-23.05L31.3-23.05Q33.1-25.65 35.43-27.05 37.75-28.45 40.9-28.45L40.9-28.45Q45.05-28.45 47.13-25.85 49.2-23.25 49.2-18.7L49.2-18.7 49.2-8.2ZM69.2-27.8L83.1-27.8 83.1-19.6 81.2-19.6 74.65-2.25Q72.2 4.3 69.05 7.58 65.9 10.85 60.75 10.85L60.75 10.85Q58.65 10.85 56.5 10.43 54.35 10 52.6 9.25L52.6 9.25 52.6 0.2 59.5 0.2 59.5 0.7Q59.5 1.95 60.8 1.95L60.8 1.95Q61.95 1.95 62.55 0.85L62.55 0.85 54.65-19.6 52.75-19.6 52.75-27.8 67.6-27.8 67.6-19.6 65.9-19.6 68.5-11.8 70.9-19.6 69.2-19.6 69.2-27.8ZM101.45-9.95L85.4-9.95 85.4-18.15 101.45-18.15 101.45-9.95ZM103.84 11.1L103.84 2.9 106.04 2.9 106.04-19.6 103.84-19.6 103.84-27.8 117.54-27.8 117.54-24.4Q118.79-26 120.77-27.25 122.74-28.5 125.29-28.5L125.29-28.5Q130.39-28.5 132.97-24.7 135.54-20.9 135.54-13.9L135.54-13.9Q135.54-6.9 132.97-3.1 130.39 0.7 125.29 0.7L125.29 0.7Q122.74 0.7 120.77-0.55 118.79-1.8 117.54-3.4L117.54-3.4 117.54 2.9 120.99 2.9 120.99 11.1 103.84 11.1ZM120.44-8.2Q121.89-8.2 122.62-8.97 123.34-9.75 123.34-11.4L123.34-11.4 123.34-16.4Q123.34-18.05 122.62-18.82 121.89-19.6 120.44-19.6L120.44-19.6Q118.99-19.6 118.27-18.82 117.54-18.05 117.54-16.4L117.54-16.4 117.54-11.4Q117.54-9.75 118.27-8.97 118.99-8.2 120.44-8.2L120.44-8.2ZM151.89 0.7Q144.74 0.7 140.74-3.03 136.74-6.75 136.74-13.9L136.74-13.9Q136.74-21.05 140.74-24.78 144.74-28.5 151.84-28.5L151.84-28.5Q155.29-28.5 158.44-27.55 161.59-26.6 163.34-25.4L163.34-25.4 163.34-15.5 154.74-15.5 154.74-16.4Q154.74-18.05 154.04-18.82 153.34-19.6 151.84-19.6L151.84-19.6Q148.94-19.6 148.94-16.4L148.94-16.4 148.94-12.1Q148.94-8.2 153.39-8.2L153.39-8.2Q157.54-8.2 163.04-9.1L163.04-9.1 163.04-1.25Q161.34-0.5 158.27 0.1 155.19 0.7 151.89 0.7L151.89 0.7Z" opacity="1" transform="matrix(1,0,0,1,0,0)" fill="#ef5b2a" class="wordmark-text-0" data-fill-palette-color="primary" id="text-0"></path></svg></g></svg></g></svg></g></svg></g><g transform="matrix(1,0,0,1,112.40043760058124,0)"><svg viewBox="0 0 170.7191247988375 133.2453194459834" height="133.2453194459834" width="170.7191247988375"><g><svg xmlns="http://www.w3.org/2000/svg" xmlns:xlink="http://www.w3.org/1999/xlink" version="1.1" x="0" y="0" viewBox="-3.347659003014568e-15 0 100.002 78.05100014973814" enable-background="new 0 0 100.001 78.05" xml:space="preserve" id="icon-0" width="170.7191247988375" height="133.2453194459834" class="icon-icon-0" data-fill-palette-color="accent"><g fill="#301c3b" data-fill-palette-color="accent"><circle fill="none" cx="50" cy="3.151" r="0.49"></circle><path fill="none" d="M22.006 45.743H77.994A3.343 3.343 0 0 0 81.339 42.399V9.671A3.344 3.344 0 0 0 77.994 6.327H22.006A3.345 3.345 0 0 0 18.661 9.671V42.399A3.344 3.344 0 0 0 22.006 45.743"></path><polygon fill="none" points="50.62,50.643 49.978,49.389 49.374,50.663 47.982,50.887 49.006,51.854 48.79,53.248 50.027,52.573    51.284,53.208 51.024,51.824 52.019,50.824  "></polygon><path d="M93.312 63.065C93.312 61.217 90.7 59.72 88.853 59.72H10.034C8.187 59.72 5.575 61.217 5.575 63.065L0 74.707A3.344 3.344 0 0 0 3.345 78.051H96.657A3.344 3.344 0 0 0 100.002 74.707z" fill="#301c3b" data-fill-palette-color="accent"></path><path d="M15.441 56.727H84.559A3.345 3.345 0 0 0 87.904 53.382V3.345A3.347 3.347 0 0 0 84.559 0H15.441A3.345 3.345 0 0 0 12.097 3.345V53.383A3.344 3.344 0 0 0 15.441 56.727M51.284 53.208L50.027 52.572 48.79 53.247 49.006 51.853 47.982 50.886 49.374 50.661 49.978 49.388 50.621 50.642 52.019 50.823 51.025 51.823zM50 2.665A0.486 0.486 0 1 1 50 3.637 0.486 0.486 0 0 1 50 2.665M18.661 9.671A3.345 3.345 0 0 1 22.006 6.327H77.994A3.344 3.344 0 0 1 81.339 9.671V42.399A3.343 3.343 0 0 1 77.994 45.743H22.006A3.344 3.344 0 0 1 18.661 42.399z" fill="#301c3b" data-fill-palette-color="accent"></path></g></svg></g></svg></g><g></g></svg></g><defs></defs></svg><rect width="387.3385716006021" height="247.2" fill="none" stroke="none" visibility="hidden"></rect></g></svg></g></svg>